<svg width="362" height="362" viewBox="0 0 362 362" fill="none" xmlns="http://www.w3.org/2000/svg">
<g filter="url(#filter0_d)">
<circle cx="181" cy="171" r="131" fill="white"/>
</g>
<g filter="url(#filter1_d)">
<path d="M124.925 161.36C123.245 161.36 121.853 160.784 120.749 159.632C119.645 158.456 118.673 156.524 117.833 153.836L112.829 137.924C112.733 137.636 112.685 137.336 112.685 137.024C112.685 135.968 113.429 135.44 114.917 135.44C115.661 135.44 116.225 135.584 116.609 135.872C117.017 136.16 117.317 136.628 117.509 137.276L122.477 153.476C122.933 154.94 123.353 155.996 123.737 156.644C124.121 157.292 124.517 157.616 124.925 157.616C125.333 157.616 125.729 157.292 126.113 156.644C126.497 155.996 126.917 154.94 127.373 153.476L132.341 137.276C132.533 136.628 132.821 136.16 133.205 135.872C133.613 135.584 134.189 135.44 134.933 135.44C136.421 135.44 137.165 135.968 137.165 137.024C137.165 137.336 137.117 137.636 137.021 137.924L132.017 153.836C131.177 156.524 130.205 158.456 129.101 159.632C127.997 160.784 126.605 161.36 124.925 161.36ZM146.614 161C144.79 161 143.374 160.52 142.366 159.56C141.358 158.6 140.854 157.256 140.854 155.528V141.128C140.854 139.448 141.334 138.14 142.294 137.204C143.278 136.268 144.634 135.8 146.362 135.8H157.558C158.278 135.8 158.83 135.968 159.214 136.304C159.598 136.616 159.79 137.072 159.79 137.672C159.79 138.248 159.586 138.704 159.178 139.04C158.794 139.352 158.254 139.508 157.558 139.508H147.19C146.71 139.508 146.326 139.664 146.038 139.976C145.774 140.288 145.642 140.72 145.642 141.272V146.276H154.822C155.542 146.276 156.094 146.444 156.478 146.78C156.862 147.092 157.054 147.548 157.054 148.148C157.054 148.724 156.85 149.18 156.442 149.516C156.058 149.828 155.518 149.984 154.822 149.984H145.642V155.528C145.642 156.08 145.774 156.512 146.038 156.824C146.326 157.136 146.71 157.292 147.19 157.292H158.35C159.07 157.292 159.622 157.46 160.006 157.796C160.39 158.108 160.582 158.564 160.582 159.164C160.582 159.74 160.378 160.196 159.97 160.532C159.586 160.844 159.046 161 158.35 161H146.614ZM166.464 161.36C165.744 161.36 165.168 161.168 164.736 160.784C164.304 160.4 164.088 159.872 164.088 159.2V145.628C164.088 142.436 165.084 139.94 167.076 138.14C169.068 136.34 171.828 135.44 175.356 135.44C178.884 135.44 181.644 136.34 183.636 138.14C185.628 139.94 186.624 142.436 186.624 145.628V159.2C186.624 159.872 186.408 160.4 185.976 160.784C185.544 161.168 184.968 161.36 184.248 161.36C183.528 161.36 182.94 161.168 182.484 160.784C182.052 160.376 181.836 159.848 181.836 159.2V145.52C181.836 143.48 181.284 141.92 180.18 140.84C179.076 139.76 177.468 139.22 175.356 139.22C173.244 139.22 171.636 139.76 170.532 140.84C169.428 141.92 168.876 143.48 168.876 145.52V159.2C168.876 159.848 168.648 160.376 168.192 160.784C167.76 161.168 167.184 161.36 166.464 161.36ZM196.219 161C194.395 161 192.979 160.52 191.971 159.56C190.963 158.6 190.459 157.256 190.459 155.528V141.128C190.459 139.448 190.939 138.14 191.899 137.204C192.883 136.268 194.239 135.8 195.967 135.8H201.007C203.767 135.8 206.155 136.304 208.171 137.312C210.187 138.32 211.723 139.772 212.779 141.668C213.859 143.564 214.399 145.82 214.399 148.436C214.399 151.052 213.859 153.308 212.779 155.204C211.723 157.076 210.187 158.516 208.171 159.524C206.179 160.508 203.791 161 201.007 161H196.219ZM200.647 157.292C203.647 157.292 205.879 156.572 207.343 155.132C208.807 153.668 209.539 151.436 209.539 148.436C209.539 145.436 208.795 143.204 207.307 141.74C205.843 140.252 203.623 139.508 200.647 139.508H196.795C196.315 139.508 195.931 139.664 195.643 139.976C195.379 140.288 195.247 140.72 195.247 141.272V155.528C195.247 156.08 195.379 156.512 195.643 156.824C195.931 157.136 196.315 157.292 196.795 157.292H200.647ZM220.253 161.324C219.533 161.324 218.957 161.132 218.525 160.748C218.093 160.364 217.877 159.836 217.877 159.164V146.564C217.877 143.084 218.873 140.36 220.865 138.392C222.857 136.424 225.629 135.44 229.181 135.44C231.509 135.44 233.525 135.884 235.229 136.772C236.933 137.66 238.229 138.944 239.117 140.624C240.029 142.304 240.485 144.284 240.485 146.564V159.164C240.485 159.836 240.269 160.364 239.837 160.748C239.405 161.132 238.829 161.324 238.109 161.324C237.389 161.324 236.801 161.132 236.345 160.748C235.913 160.34 235.697 159.812 235.697 159.164V153.296H222.665V159.164C222.665 159.812 222.437 160.34 221.981 160.748C221.549 161.132 220.973 161.324 220.253 161.324ZM235.697 149.588V146.456C235.697 144.056 235.145 142.256 234.041 141.056C232.961 139.832 231.341 139.22 229.181 139.22C224.837 139.22 222.665 141.632 222.665 146.456V149.588H235.697ZM133.448 208C131.624 208 130.208 207.52 129.2 206.56C128.192 205.6 127.688 204.256 127.688 202.528V184.6C127.688 183.928 127.904 183.4 128.336 183.016C128.768 182.632 129.344 182.44 130.064 182.44C130.784 182.44 131.36 182.644 131.792 183.052C132.248 183.436 132.476 183.952 132.476 184.6V202.528C132.476 203.08 132.608 203.512 132.872 203.824C133.16 204.136 133.544 204.292 134.024 204.292H145.544C146.264 204.292 146.816 204.46 147.2 204.796C147.584 205.108 147.776 205.564 147.776 206.164C147.776 206.74 147.572 207.196 147.164 207.532C146.78 207.844 146.24 208 145.544 208H133.448ZM154.171 208.36C153.451 208.36 152.875 208.168 152.443 207.784C152.011 207.4 151.795 206.872 151.795 206.2V184.6C151.795 183.928 152.011 183.4 152.443 183.016C152.875 182.632 153.451 182.44 154.171 182.44C154.867 182.44 155.443 182.632 155.899 183.016C156.355 183.4 156.583 183.928 156.583 184.6V206.2C156.583 206.872 156.355 207.4 155.899 207.784C155.443 208.168 154.867 208.36 154.171 208.36ZM173.564 208.36C171.884 208.36 170.492 207.784 169.388 206.632C168.284 205.456 167.312 203.524 166.472 200.836L161.468 184.924C161.372 184.636 161.324 184.336 161.324 184.024C161.324 182.968 162.068 182.44 163.556 182.44C164.3 182.44 164.864 182.584 165.248 182.872C165.656 183.16 165.956 183.628 166.148 184.276L171.116 200.476C171.572 201.94 171.992 202.996 172.376 203.644C172.76 204.292 173.156 204.616 173.564 204.616C173.972 204.616 174.368 204.292 174.752 203.644C175.136 202.996 175.556 201.94 176.012 200.476L180.98 184.276C181.172 183.628 181.46 183.16 181.844 182.872C182.252 182.584 182.828 182.44 183.572 182.44C185.06 182.44 185.804 182.968 185.804 184.024C185.804 184.336 185.756 184.636 185.66 184.924L180.656 200.836C179.816 203.524 178.844 205.456 177.74 206.632C176.636 207.784 175.244 208.36 173.564 208.36ZM189.493 188.128C189.493 186.448 189.973 185.14 190.933 184.204C191.917 183.268 193.273 182.8 195.001 182.8H201.409C204.985 182.8 207.685 183.496 209.509 184.888C211.333 186.28 212.245 188.356 212.245 191.116C212.245 193.684 211.477 195.688 209.941 197.128C208.429 198.568 206.389 199.288 203.821 199.288L209.293 204.724C209.725 205.156 209.941 205.648 209.941 206.2C209.941 206.776 209.689 207.28 209.185 207.712C208.657 208.12 208.141 208.324 207.637 208.324C206.941 208.324 206.305 208.012 205.729 207.388L197.953 199.432H194.281V206.2C194.281 206.872 194.053 207.4 193.597 207.784C193.141 208.168 192.565 208.36 191.869 208.36C191.149 208.36 190.573 208.168 190.141 207.784C189.709 207.4 189.493 206.872 189.493 206.2V188.128ZM201.265 195.724C202.849 195.724 204.085 195.568 204.973 195.256C205.861 194.944 206.485 194.464 206.845 193.816C207.229 193.144 207.421 192.244 207.421 191.116C207.421 189.484 206.917 188.308 205.909 187.588C204.925 186.868 203.377 186.508 201.265 186.508H195.829C195.349 186.508 194.965 186.664 194.677 186.976C194.413 187.288 194.281 187.72 194.281 188.272V195.724H201.265ZM221.69 208C219.866 208 218.45 207.52 217.442 206.56C216.434 205.6 215.93 204.256 215.93 202.528V188.128C215.93 186.448 216.41 185.14 217.37 184.204C218.354 183.268 219.71 182.8 221.438 182.8H232.634C233.354 182.8 233.906 182.968 234.29 183.304C234.674 183.616 234.866 184.072 234.866 184.672C234.866 185.248 234.662 185.704 234.254 186.04C233.87 186.352 233.33 186.508 232.634 186.508H222.266C221.786 186.508 221.402 186.664 221.114 186.976C220.85 187.288 220.718 187.72 220.718 188.272V193.276H229.898C230.618 193.276 231.17 193.444 231.554 193.78C231.938 194.092 232.13 194.548 232.13 195.148C232.13 195.724 231.926 196.18 231.518 196.516C231.134 196.828 230.594 196.984 229.898 196.984H220.718V202.528C220.718 203.08 220.85 203.512 221.114 203.824C221.402 204.136 221.786 204.292 222.266 204.292H233.426C234.146 204.292 234.698 204.46 235.082 204.796C235.466 205.108 235.658 205.564 235.658 206.164C235.658 206.74 235.454 207.196 235.046 207.532C234.662 207.844 234.122 208 233.426 208H221.69Z" fill="black"/>
</g>
<defs>
<filter id="filter0_d" x="0" y="0" width="362" height="362" filterUnits="userSpaceOnUse" color-interpolation-filters="sRGB">
<feFlood flood-opacity="0" result="BackgroundImageFix"/>
<feColorMatrix in="SourceAlpha" type="matrix" values="0 0 0 0 0 0 0 0 0 0 0 0 0 0 0 0 0 0 127 0"/>
<feOffset dy="10"/>
<feGaussianBlur stdDeviation="25"/>
<feColorMatrix type="matrix" values="0 0 0 0 0 0 0 0 0 0 0 0 0 0 0 0 0 0 0.15 0"/>
<feBlend mode="normal" in2="BackgroundImageFix" result="effect1_dropShadow"/>
<feBlend mode="normal" in="SourceGraphic" in2="effect1_dropShadow" result="shape"/>
</filter>
<filter id="filter1_d" x="112.685" y="135.44" width="127.8" height="74.92" filterUnits="userSpaceOnUse" color-interpolation-filters="sRGB">
<feFlood flood-opacity="0" result="BackgroundImageFix"/>
<feColorMatrix in="SourceAlpha" type="matrix" values="0 0 0 0 0 0 0 0 0 0 0 0 0 0 0 0 0 0 127 0"/>
<feOffset dy="2"/>
<feColorMatrix type="matrix" values="0 0 0 0 0.980392 0 0 0 0 0.290196 0 0 0 0 0.0470588 0 0 0 1 0"/>
<feBlend mode="normal" in2="BackgroundImageFix" result="effect1_dropShadow"/>
<feBlend mode="normal" in="SourceGraphic" in2="effect1_dropShadow" result="shape"/>
</filter>
</defs>
</svg>
