<svg width="129" height="76" viewBox="0 0 129 76" fill="none" xmlns="http://www.w3.org/2000/svg">
<g filter="url(#filter0_d)">
<path d="M12.9253 26.36C11.2453 26.36 9.8533 25.784 8.7493 24.632C7.6453 23.456 6.6733 21.524 5.8333 18.836L0.829297 2.924C0.733297 2.636 0.685297 2.336 0.685297 2.024C0.685297 0.967999 1.4293 0.439999 2.9173 0.439999C3.6613 0.439999 4.2253 0.583999 4.6093 0.872C5.0173 1.16 5.3173 1.628 5.5093 2.276L10.4773 18.476C10.9333 19.94 11.3533 20.996 11.7373 21.644C12.1213 22.292 12.5173 22.616 12.9253 22.616C13.3333 22.616 13.7293 22.292 14.1133 21.644C14.4973 20.996 14.9173 19.94 15.3733 18.476L20.3413 2.276C20.5333 1.628 20.8213 1.16 21.2053 0.872C21.6133 0.583999 22.1893 0.439999 22.9333 0.439999C24.4213 0.439999 25.1653 0.967999 25.1653 2.024C25.1653 2.336 25.1173 2.636 25.0213 2.924L20.0173 18.836C19.1773 21.524 18.2053 23.456 17.1013 24.632C15.9973 25.784 14.6053 26.36 12.9253 26.36ZM34.6139 26C32.7899 26 31.3739 25.52 30.3659 24.56C29.3579 23.6 28.8539 22.256 28.8539 20.528V6.128C28.8539 4.448 29.3339 3.14 30.2939 2.204C31.2779 1.268 32.6339 0.799998 34.3619 0.799998H45.5579C46.2779 0.799998 46.8299 0.967998 47.2139 1.304C47.5979 1.616 47.7899 2.072 47.7899 2.672C47.7899 3.248 47.5859 3.704 47.1779 4.04C46.7939 4.352 46.2539 4.508 45.5579 4.508H35.1899C34.7099 4.508 34.3259 4.664 34.0379 4.976C33.7739 5.288 33.6419 5.72 33.6419 6.272V11.276H42.8219C43.5419 11.276 44.0939 11.444 44.4779 11.78C44.8619 12.092 45.0539 12.548 45.0539 13.148C45.0539 13.724 44.8499 14.18 44.4419 14.516C44.0579 14.828 43.5179 14.984 42.8219 14.984H33.6419V20.528C33.6419 21.08 33.7739 21.512 34.0379 21.824C34.3259 22.136 34.7099 22.292 35.1899 22.292H46.3499C47.0699 22.292 47.6219 22.46 48.0059 22.796C48.3899 23.108 48.5819 23.564 48.5819 24.164C48.5819 24.74 48.3779 25.196 47.9699 25.532C47.5859 25.844 47.0459 26 46.3499 26H34.6139ZM54.464 26.36C53.744 26.36 53.168 26.168 52.736 25.784C52.304 25.4 52.088 24.872 52.088 24.2V10.628C52.088 7.436 53.084 4.94 55.076 3.14C57.068 1.34 59.828 0.439999 63.356 0.439999C66.884 0.439999 69.644 1.34 71.636 3.14C73.628 4.94 74.624 7.436 74.624 10.628V24.2C74.624 24.872 74.408 25.4 73.976 25.784C73.544 26.168 72.968 26.36 72.248 26.36C71.528 26.36 70.94 26.168 70.484 25.784C70.052 25.376 69.836 24.848 69.836 24.2V10.52C69.836 8.48 69.284 6.92 68.18 5.84C67.076 4.76 65.468 4.22 63.356 4.22C61.244 4.22 59.636 4.76 58.532 5.84C57.428 6.92 56.876 8.48 56.876 10.52V24.2C56.876 24.848 56.648 25.376 56.192 25.784C55.76 26.168 55.184 26.36 54.464 26.36ZM84.2194 26C82.3954 26 80.9794 25.52 79.9714 24.56C78.9634 23.6 78.4594 22.256 78.4594 20.528V6.128C78.4594 4.448 78.9394 3.14 79.8994 2.204C80.8834 1.268 82.2394 0.799998 83.9674 0.799998H89.0074C91.7674 0.799998 94.1554 1.304 96.1714 2.312C98.1874 3.32 99.7234 4.772 100.779 6.668C101.859 8.564 102.399 10.82 102.399 13.436C102.399 16.052 101.859 18.308 100.779 20.204C99.7234 22.076 98.1874 23.516 96.1714 24.524C94.1794 25.508 91.7914 26 89.0074 26H84.2194ZM88.6474 22.292C91.6474 22.292 93.8794 21.572 95.3434 20.132C96.8074 18.668 97.5394 16.436 97.5394 13.436C97.5394 10.436 96.7954 8.204 95.3074 6.74C93.8434 5.252 91.6234 4.508 88.6474 4.508H84.7954C84.3154 4.508 83.9314 4.664 83.6434 4.976C83.3794 5.288 83.2474 5.72 83.2474 6.272V20.528C83.2474 21.08 83.3794 21.512 83.6434 21.824C83.9314 22.136 84.3154 22.292 84.7954 22.292H88.6474ZM108.253 26.324C107.533 26.324 106.957 26.132 106.525 25.748C106.093 25.364 105.877 24.836 105.877 24.164V11.564C105.877 8.084 106.873 5.36 108.865 3.392C110.857 1.424 113.629 0.439999 117.181 0.439999C119.509 0.439999 121.525 0.883999 123.229 1.772C124.933 2.66 126.229 3.944 127.117 5.624C128.029 7.304 128.485 9.284 128.485 11.564V24.164C128.485 24.836 128.269 25.364 127.837 25.748C127.405 26.132 126.829 26.324 126.109 26.324C125.389 26.324 124.801 26.132 124.345 25.748C123.913 25.34 123.697 24.812 123.697 24.164V18.296H110.665V24.164C110.665 24.812 110.437 25.34 109.981 25.748C109.549 26.132 108.973 26.324 108.253 26.324ZM123.697 14.588V11.456C123.697 9.056 123.145 7.256 122.041 6.056C120.961 4.832 119.341 4.22 117.181 4.22C112.837 4.22 110.665 6.632 110.665 11.456V14.588H123.697ZM21.4479 73C19.6239 73 18.2079 72.52 17.1999 71.56C16.1919 70.6 15.6879 69.256 15.6879 67.528V49.6C15.6879 48.928 15.9039 48.4 16.3359 48.016C16.7679 47.632 17.3439 47.44 18.0639 47.44C18.7839 47.44 19.3599 47.644 19.7919 48.052C20.2479 48.436 20.4759 48.952 20.4759 49.6V67.528C20.4759 68.08 20.6079 68.512 20.8719 68.824C21.1599 69.136 21.5439 69.292 22.0239 69.292H33.5439C34.2639 69.292 34.8159 69.46 35.1999 69.796C35.5839 70.108 35.7759 70.564 35.7759 71.164C35.7759 71.74 35.5719 72.196 35.1639 72.532C34.7799 72.844 34.2399 73 33.5439 73H21.4479ZM42.1712 73.36C41.4512 73.36 40.8752 73.168 40.4432 72.784C40.0112 72.4 39.7952 71.872 39.7952 71.2V49.6C39.7952 48.928 40.0112 48.4 40.4432 48.016C40.8752 47.632 41.4512 47.44 42.1712 47.44C42.8672 47.44 43.4432 47.632 43.8992 48.016C44.3552 48.4 44.5832 48.928 44.5832 49.6V71.2C44.5832 71.872 44.3552 72.4 43.8992 72.784C43.4432 73.168 42.8672 73.36 42.1712 73.36ZM61.564 73.36C59.884 73.36 58.492 72.784 57.388 71.632C56.284 70.456 55.312 68.524 54.472 65.836L49.468 49.924C49.372 49.636 49.324 49.336 49.324 49.024C49.324 47.968 50.068 47.44 51.556 47.44C52.3 47.44 52.864 47.584 53.248 47.872C53.656 48.16 53.956 48.628 54.148 49.276L59.116 65.476C59.572 66.94 59.992 67.996 60.376 68.644C60.76 69.292 61.156 69.616 61.564 69.616C61.972 69.616 62.368 69.292 62.752 68.644C63.136 67.996 63.556 66.94 64.012 65.476L68.98 49.276C69.172 48.628 69.46 48.16 69.844 47.872C70.252 47.584 70.828 47.44 71.572 47.44C73.06 47.44 73.804 47.968 73.804 49.024C73.804 49.336 73.756 49.636 73.66 49.924L68.656 65.836C67.816 68.524 66.844 70.456 65.74 71.632C64.636 72.784 63.244 73.36 61.564 73.36ZM77.4926 53.128C77.4926 51.448 77.9726 50.14 78.9326 49.204C79.9166 48.268 81.2726 47.8 83.0006 47.8H89.4086C92.9846 47.8 95.6846 48.496 97.5086 49.888C99.3326 51.28 100.245 53.356 100.245 56.116C100.245 58.684 99.4766 60.688 97.9406 62.128C96.4286 63.568 94.3886 64.288 91.8206 64.288L97.2926 69.724C97.7246 70.156 97.9406 70.648 97.9406 71.2C97.9406 71.776 97.6886 72.28 97.1846 72.712C96.6566 73.12 96.1406 73.324 95.6366 73.324C94.9406 73.324 94.3046 73.012 93.7286 72.388L85.9526 64.432H82.2806V71.2C82.2806 71.872 82.0526 72.4 81.5966 72.784C81.1406 73.168 80.5646 73.36 79.8686 73.36C79.1486 73.36 78.5726 73.168 78.1406 72.784C77.7086 72.4 77.4926 71.872 77.4926 71.2V53.128ZM89.2646 60.724C90.8486 60.724 92.0846 60.568 92.9726 60.256C93.8606 59.944 94.4846 59.464 94.8446 58.816C95.2286 58.144 95.4206 57.244 95.4206 56.116C95.4206 54.484 94.9166 53.308 93.9086 52.588C92.9246 51.868 91.3766 51.508 89.2646 51.508H83.8286C83.3486 51.508 82.9646 51.664 82.6766 51.976C82.4126 52.288 82.2806 52.72 82.2806 53.272V60.724H89.2646ZM109.69 73C107.866 73 106.45 72.52 105.442 71.56C104.434 70.6 103.93 69.256 103.93 67.528V53.128C103.93 51.448 104.41 50.14 105.37 49.204C106.354 48.268 107.71 47.8 109.438 47.8H120.634C121.354 47.8 121.906 47.968 122.29 48.304C122.674 48.616 122.866 49.072 122.866 49.672C122.866 50.248 122.662 50.704 122.254 51.04C121.87 51.352 121.33 51.508 120.634 51.508H110.266C109.786 51.508 109.402 51.664 109.114 51.976C108.85 52.288 108.718 52.72 108.718 53.272V58.276H117.898C118.618 58.276 119.17 58.444 119.554 58.78C119.938 59.092 120.13 59.548 120.13 60.148C120.13 60.724 119.926 61.18 119.518 61.516C119.134 61.828 118.594 61.984 117.898 61.984H108.718V67.528C108.718 68.08 108.85 68.512 109.114 68.824C109.402 69.136 109.786 69.292 110.266 69.292H121.426C122.146 69.292 122.698 69.46 123.082 69.796C123.466 70.108 123.658 70.564 123.658 71.164C123.658 71.74 123.454 72.196 123.046 72.532C122.662 72.844 122.122 73 121.426 73H109.69Z" fill="black"/>
</g>
<defs>
<filter id="filter0_d" x="0.685295" y="0.440002" width="127.8" height="74.92" filterUnits="userSpaceOnUse" color-interpolation-filters="sRGB">
<feFlood flood-opacity="0" result="BackgroundImageFix"/>
<feColorMatrix in="SourceAlpha" type="matrix" values="0 0 0 0 0 0 0 0 0 0 0 0 0 0 0 0 0 0 127 0"/>
<feOffset dy="2"/>
<feColorMatrix type="matrix" values="0 0 0 0 0.980392 0 0 0 0 0.290196 0 0 0 0 0.0470588 0 0 0 1 0"/>
<feBlend mode="normal" in2="BackgroundImageFix" result="effect1_dropShadow"/>
<feBlend mode="normal" in="SourceGraphic" in2="effect1_dropShadow" result="shape"/>
</filter>
</defs>
</svg>
